<svg width="26" height="25" viewBox="0 0 26 25" fill="none" xmlns="http://www.w3.org/2000/svg">
<path d="M14.5595 10.8916C13.7063 10.0387 12.5493 9.55963 11.3428 9.55963C10.1364 9.55963 8.97941 10.0387 8.12618 10.8916L4.90847 14.1083C4.05522 14.9615 3.57587 16.1188 3.57587 17.3255C3.57587 18.5322 4.05522 19.6894 4.90847 20.5427C5.76172 21.3959 6.91898 21.8753 8.12566 21.8753C9.33234 21.8753 10.4896 21.3959 11.3428 20.5427L12.9512 18.9343" stroke="#B9B9B9" stroke-width="1.5" stroke-linecap="round" stroke-linejoin="round"/>
<path d="M11.3449 14.1083C12.1981 14.9612 13.3552 15.4403 14.5616 15.4403C15.768 15.4403 16.925 14.9612 17.7782 14.1083L20.9959 10.8916C21.8492 10.0384 22.3286 8.8811 22.3286 7.67442C22.3286 6.46774 21.8492 5.31049 20.9959 4.45724C20.1427 3.60398 18.9854 3.12463 17.7788 3.12463C16.5721 3.12463 15.4148 3.60398 14.5616 4.45724L12.9532 6.06557" stroke="#B9B9B9" stroke-width="1.5" stroke-linecap="round" stroke-linejoin="round"/>
</svg>
