<svg width="176" height="52" viewBox="0 0 176 52" fill="none" xmlns="http://www.w3.org/2000/svg">
<path d="M161.85 0.000168999H14.7294C14.1932 0.000168999 13.6633 0.000168999 13.1285 0.00276899C12.6807 0.00536898 12.2366 0.012922 11.7846 0.0192789C10.8026 0.0295512 9.82288 0.106348 8.85401 0.249001C7.88649 0.394761 6.9493 0.669558 6.07411 1.0641C5.19998 1.46198 4.40128 1.97899 3.70695 2.59635C3.00897 3.21199 2.42716 3.92357 1.98389 4.70377C1.53938 5.4824 1.23116 6.31677 1.06987 7.17807C0.907042 8.03828 0.819424 8.90842 0.8078 9.78067C0.794229 10.1792 0.792796 10.5791 0.785645 10.9778V41.0262C0.792796 41.4299 0.794229 41.8209 0.8078 42.2247C0.819428 43.0968 0.907046 43.9669 1.06987 44.8271C1.23071 45.6889 1.53895 46.5238 1.98389 47.3027C2.42697 48.0804 3.00886 48.7891 3.70695 49.4013C4.39865 50.0214 5.19786 50.5388 6.07411 50.9336C6.9493 51.3292 7.88639 51.6057 8.85401 51.7537C9.82304 51.8952 10.8026 51.972 11.7846 51.9835C12.2366 51.9923 12.6807 51.9974 13.1285 51.9974C13.6633 52 14.1932 52 14.7294 52H161.85C162.375 52 162.909 52 163.435 51.9974C163.88 51.9974 164.338 51.9923 164.784 51.9835C165.764 51.9726 166.741 51.8957 167.709 51.7537C168.678 51.6047 169.62 51.3283 170.499 50.9336C171.375 50.5385 172.173 50.0213 172.864 49.4013C173.56 48.7867 174.143 48.0786 174.592 47.3027C175.034 46.5232 175.338 45.6885 175.498 44.8271C175.66 43.9668 175.751 43.097 175.768 42.2247C175.774 41.8209 175.774 41.4299 175.774 41.0262C175.786 40.5539 175.786 40.0842 175.786 39.6043V12.3971C175.786 11.921 175.786 11.4488 175.774 10.9778C175.774 10.5791 175.774 10.1792 175.768 9.78061C175.751 8.90829 175.66 8.03835 175.498 7.17802C175.338 6.31722 175.032 5.4829 174.592 4.70371C173.689 3.13991 172.258 1.86699 170.499 1.06398C169.62 0.670404 168.678 0.39568 167.709 0.248884C166.742 0.105602 165.764 0.028779 164.784 0.0190969C164.338 0.012753 163.88 0.00513498 163.435 0.00259999C162.909 0 162.375 0 161.85 0V0.000168999Z" fill="#FFF2DE"/>
<path d="M12.9883 50.891C12.5418 50.891 12.1062 50.8859 11.6632 50.8771C10.7456 50.8664 9.83017 50.7955 8.92438 50.6648C8.07977 50.5356 7.26156 50.2953 6.49677 49.9517C5.73897 49.6109 5.04781 49.1642 4.44975 48.6285C3.84302 48.0992 3.33789 47.4851 2.9544 46.8109C2.56666 46.1323 2.29832 45.4048 2.15874 44.6539C2.00799 43.8471 1.92643 43.0313 1.91476 42.2135C1.90547 41.939 1.89331 41.0251 1.89331 41.0251V10.9583C1.89331 10.9583 1.90626 10.0584 1.91484 9.79403C1.92601 8.97754 2.00709 8.16298 2.15739 7.35742C2.29724 6.6045 2.56577 5.87497 2.95372 5.1941C3.33581 4.5203 3.83813 3.90586 4.4412 3.37459C5.04359 2.83826 5.73697 2.3892 6.49605 2.04378C7.25909 1.70131 8.07574 1.46266 8.91865 1.33581C9.82741 1.20379 10.7461 1.13241 11.6668 1.12228L12.989 1.10638H163.576L164.913 1.12291C165.826 1.13254 166.736 1.20329 167.636 1.33453C168.487 1.46299 169.314 1.70331 170.084 2.04759C171.605 2.74373 172.844 3.84507 173.623 5.19728C174.006 5.87345 174.269 6.59702 174.409 7.34344C174.559 8.15561 174.644 8.97657 174.662 9.79976C174.666 10.1684 174.666 10.5643 174.666 10.9583C174.678 11.4464 174.678 11.911 174.678 12.3794V39.6193C174.678 40.0921 174.678 40.5535 174.666 41.0187C174.666 41.442 174.666 41.8297 174.661 42.2288C174.644 43.0373 174.561 43.8436 174.41 44.6412C174.274 45.3975 174.007 46.1306 173.619 46.8148C173.233 47.4817 172.731 48.0905 172.131 48.6184C171.532 49.157 170.841 49.6063 170.08 49.9492C169.311 50.2954 168.487 50.5366 167.636 50.6648C166.73 50.7963 165.815 50.8672 164.897 50.8771C164.468 50.8859 164.02 50.891 163.583 50.891L161.995 50.8936L12.9883 50.891Z" fill="#191E23"/>
<path d="M42.9632 25.8564C42.9778 24.728 43.2779 23.6217 43.8354 22.6404C44.3931 21.659 45.1901 20.8344 46.1525 20.2434C45.5411 19.3713 44.7346 18.6535 43.797 18.1472C42.8594 17.6408 41.8164 17.3598 40.7511 17.3265C38.4785 17.0882 36.2753 18.6849 35.1172 18.6849C33.9367 18.6849 32.1537 17.3502 30.2336 17.3897C28.9918 17.4297 27.7813 17.7905 26.7205 18.4367C25.6596 19.0831 24.7845 19.9928 24.1803 21.0774C21.563 25.604 23.5153 32.2566 26.0225 35.9156C27.2769 37.7072 28.743 39.7086 30.6613 39.6376C32.5384 39.5599 33.2395 38.4419 35.5054 38.4419C37.7502 38.4419 38.408 39.6376 40.3652 39.5925C42.3795 39.5599 43.6487 37.7929 44.859 35.9842C45.7604 34.7075 46.4539 33.2966 46.914 31.8036C45.7437 31.3092 44.7451 30.4816 44.0425 29.4239C43.34 28.3664 42.9647 27.1256 42.9632 25.8564Z" fill="white"/>
<path d="M39.2659 14.9198C40.3642 13.6028 40.9052 11.9101 40.7743 10.201C39.0963 10.377 37.5464 11.1781 36.4332 12.4446C35.889 13.0633 35.4721 13.783 35.2067 14.5627C34.941 15.3425 34.8318 16.1668 34.8855 16.9887C35.7246 16.9974 36.5549 16.8156 37.3138 16.4572C38.0725 16.0989 38.74 15.5732 39.2659 14.9198Z" fill="white"/>
<path d="M65.4838 35.2813H59.3236L57.8443 39.6447H55.235L61.0698 23.5013H63.7807L69.6155 39.6447H66.9619L65.4838 35.2813ZM59.9617 33.2679H64.8446L62.4374 26.1864H62.37L59.9617 33.2679Z" fill="white"/>
<path d="M82.2169 33.7605C82.2169 37.418 80.257 39.7679 77.2996 39.7679C76.5505 39.807 75.8054 39.6346 75.1497 39.2705C74.4941 38.9063 73.9544 38.3651 73.5923 37.7087H73.5364V43.5384H71.1178V27.8748H73.4588V29.8325H73.5033C73.882 29.1793 74.4308 28.6409 75.0914 28.2745C75.7522 27.9081 76.4998 27.7274 77.255 27.7517C80.2456 27.7517 82.2169 30.1131 82.2169 33.7605ZM79.7309 33.7605C79.7309 31.3776 78.498 29.8109 76.6171 29.8109C74.7692 29.8109 73.5262 31.4106 73.5262 33.7605C73.5262 36.1319 74.7692 37.7201 76.6171 37.7201C78.498 37.7201 79.7309 36.1649 79.7309 33.7605Z" fill="white"/>
<path d="M95.1862 33.7605C95.1862 37.418 93.2258 39.7679 90.2683 39.7679C89.5192 39.807 88.7742 39.6346 88.1185 39.2705C87.4629 38.9063 86.9232 38.3651 86.5611 37.7087H86.5051V43.5384H84.0866V27.8748H86.4276V29.8325H86.4721C86.8508 29.1793 87.3996 28.6409 88.0602 28.2745C88.7209 27.9081 89.4686 27.7274 90.2238 27.7517C93.2144 27.7517 95.1862 30.1131 95.1862 33.7605ZM92.6997 33.7605C92.6997 31.3776 91.4668 29.8109 89.5859 29.8109C87.738 29.8109 86.495 31.4106 86.495 33.7605C86.495 36.1319 87.738 37.7201 89.5859 37.7201C91.4668 37.7201 92.6997 36.1649 92.6997 33.7605Z" fill="white"/>
<path d="M103.755 35.1469C103.934 36.7479 105.491 37.7989 107.619 37.7989C109.657 37.7989 111.124 36.7478 111.124 35.3044C111.124 34.0513 110.239 33.3011 108.145 32.7869L106.05 32.2829C103.083 31.5669 101.705 30.1805 101.705 27.9309C101.705 25.1455 104.135 23.2323 107.584 23.2323C111.001 23.2323 113.342 25.1455 113.42 27.9309H110.979C110.833 26.3198 109.5 25.3474 107.551 25.3474C105.603 25.3474 104.27 26.3312 104.27 27.7633C104.27 28.9046 105.121 29.5762 107.204 30.0903L108.985 30.527C112.301 31.3104 113.677 32.6408 113.677 35.0021C113.677 38.0224 111.27 39.9139 107.439 39.9139C103.855 39.9139 101.435 38.0667 101.279 35.1468L103.755 35.1469Z" fill="white"/>
<path d="M118.901 25.0896V27.875H121.141V29.7882H118.901V36.2767C118.901 37.2848 119.349 37.7545 120.334 37.7545C120.6 37.7498 120.866 37.7312 121.13 37.6986V39.6003C120.687 39.683 120.237 39.7204 119.786 39.712C117.401 39.712 116.471 38.8169 116.471 36.5344V29.7882H114.757V27.875H116.471V25.0896H118.901Z" fill="white"/>
<path d="M122.438 33.7604C122.438 30.0572 124.622 27.7302 128.026 27.7302C131.443 27.7302 133.616 30.0572 133.616 33.7604C133.616 37.4739 131.454 39.7907 128.026 39.7907C124.6 39.7907 122.438 37.4739 122.438 33.7604ZM131.152 33.7604C131.152 31.2201 129.986 29.7208 128.026 29.7208C126.067 29.7208 124.901 31.2315 124.901 33.7604C124.901 36.3109 126.067 37.7989 128.026 37.7989C129.986 37.7989 131.152 36.3109 131.152 33.7604Z" fill="white"/>
<path d="M135.609 27.8749H137.916V29.8782H137.972C138.128 29.2525 138.495 28.6996 139.011 28.3123C139.527 27.925 140.161 27.727 140.806 27.7516C141.084 27.7507 141.363 27.781 141.635 27.8418V30.1016C141.283 29.9941 140.916 29.9448 140.548 29.9556C140.197 29.9413 139.846 30.0032 139.521 30.137C139.196 30.2708 138.904 30.4732 138.664 30.7304C138.425 30.9877 138.244 31.2937 138.134 31.6273C138.024 31.961 137.988 32.3145 138.028 32.6635V39.6447H135.609V27.8749Z" fill="white"/>
<path d="M152.786 36.1878C152.461 38.3244 150.379 39.7907 147.713 39.7907C144.285 39.7907 142.157 37.4966 142.157 33.8163C142.157 30.1246 144.297 27.7302 147.612 27.7302C150.872 27.7302 152.922 29.9671 152.922 33.5358V34.3635H144.599V34.5095C144.561 34.9426 144.616 35.379 144.759 35.7896C144.902 36.2001 145.131 36.5756 145.431 36.8909C145.731 37.2062 146.094 37.4542 146.498 37.6184C146.901 37.7826 147.335 37.8593 147.769 37.8432C148.341 37.8967 148.914 37.7645 149.404 37.4662C149.894 37.168 150.276 36.7196 150.49 36.1878H152.786ZM144.611 32.675H150.501C150.523 32.2856 150.464 31.8958 150.328 31.5301C150.191 31.1646 149.982 30.8311 149.71 30.5506C149.439 30.2702 149.112 30.0486 148.75 29.9002C148.39 29.7517 148.002 29.6794 147.612 29.6878C147.217 29.6854 146.827 29.7611 146.463 29.9102C146.098 30.0593 145.768 30.2791 145.488 30.5568C145.209 30.8346 144.988 31.1647 144.837 31.5283C144.687 31.8918 144.609 32.2815 144.611 32.675Z" fill="white"/>
<path d="M59.6592 11.3502C60.1662 11.3139 60.675 11.3904 61.149 11.5743C61.6228 11.7581 62.0499 12.0448 62.3994 12.4135C62.7489 12.7822 63.0122 13.2238 63.1702 13.7065C63.3282 14.1892 63.377 14.7007 63.3131 15.2046C63.3131 17.6826 61.9722 19.1072 59.6592 19.1072H56.8542V11.3502H59.6592ZM58.0603 18.0101H59.5245C59.8868 18.0318 60.2494 17.9724 60.5858 17.8364C60.9222 17.7005 61.2242 17.4912 61.4695 17.224C61.7148 16.9567 61.8974 16.6382 62.0039 16.2916C62.1104 15.9451 62.1383 15.579 62.0853 15.2203C62.1344 14.8631 62.1038 14.4993 61.9957 14.1552C61.8874 13.8112 61.7044 13.4953 61.4597 13.2301C61.2149 12.9651 60.9144 12.7574 60.58 12.6218C60.2454 12.4863 59.8849 12.4264 59.5245 12.4464H58.0603V18.0101Z" fill="white"/>
<path d="M64.6756 16.1776C64.6388 15.7929 64.6828 15.4049 64.805 15.0381C64.9271 14.6714 65.1246 14.3343 65.3848 14.0483C65.6451 13.7623 65.9622 13.5339 66.316 13.3775C66.6698 13.2211 67.0524 13.1404 67.4392 13.1404C67.8261 13.1404 68.2088 13.2211 68.5625 13.3775C68.9163 13.5339 69.2335 13.7623 69.4936 14.0483C69.7539 14.3343 69.9514 14.6714 70.0736 15.0381C70.1956 15.4049 70.2398 15.7929 70.2029 16.1776C70.2404 16.5628 70.1969 16.9515 70.0751 17.3187C69.9533 17.686 69.7559 18.0237 69.4956 18.3102C69.2353 18.5967 68.9179 18.8258 68.5638 18.9825C68.2097 19.1392 67.8267 19.2201 67.4392 19.2201C67.0519 19.2201 66.6689 19.1392 66.3148 18.9825C65.9605 18.8258 65.6431 18.5967 65.3828 18.3102C65.1227 18.0237 64.9253 17.686 64.8034 17.3187C64.6816 16.9515 64.6382 16.5628 64.6756 16.1776ZM69.0133 16.1776C69.0133 14.9088 68.4426 14.1667 67.4412 14.1667C66.4358 14.1667 65.8704 14.9088 65.8704 16.1777C65.8704 17.4566 66.436 18.193 67.4412 18.193C68.4426 18.193 69.0133 17.4516 69.0133 16.1776Z" fill="white"/>
<path d="M77.5499 19.1072H76.3503L75.1391 14.7957H75.0476L73.8414 19.1072H72.6531L71.0378 13.2533H72.2109L73.2606 17.7201H73.3471L74.5519 13.2533H75.6614L76.8663 17.7201H76.9578L78.0024 13.2533H79.159L77.5499 19.1072Z" fill="white"/>
<path d="M80.5172 13.2532H81.6306V14.1831H81.717C81.8635 13.8492 82.1109 13.5691 82.4243 13.3822C82.7378 13.1953 83.1018 13.1106 83.4657 13.1401C83.7509 13.1188 84.0372 13.1617 84.3034 13.2659C84.5697 13.37 84.8092 13.5326 85.004 13.7418C85.1988 13.9508 85.3439 14.2011 85.4288 14.4738C85.5136 14.7466 85.536 15.0349 85.4941 15.3174V19.1069H84.3377V15.6075C84.3377 14.6669 83.9284 14.199 83.0731 14.199C82.8794 14.19 82.6862 14.2229 82.5066 14.2955C82.3268 14.3681 82.1651 14.4786 82.0321 14.6195C81.8992 14.7605 81.7983 14.9283 81.7365 15.1119C81.6747 15.2953 81.6532 15.4899 81.6738 15.6824V19.107H80.5172V13.2532Z" fill="white"/>
<path d="M87.3369 10.9681H88.4934V19.1072H87.3369V10.9681Z" fill="white"/>
<path d="M90.1016 16.1778C90.0648 15.7932 90.1089 15.405 90.231 15.0383C90.3532 14.6715 90.5507 14.3344 90.8109 14.0484C91.0712 13.7624 91.3883 13.5339 91.7422 13.3776C92.0961 13.2212 92.4787 13.1404 92.8656 13.1404C93.2525 13.1404 93.6351 13.2212 93.9888 13.3776C94.3427 13.5339 94.6599 13.7624 94.9201 14.0484C95.1804 14.3344 95.3779 14.6715 95.5001 15.0383C95.6223 15.405 95.6663 15.7932 95.6294 16.1778C95.667 16.5629 95.6234 16.9516 95.5016 17.319C95.3797 17.6862 95.1823 18.024 94.922 18.3105C94.6617 18.597 94.3443 18.8259 93.9902 18.9827C93.6359 19.1394 93.2529 19.2204 92.8656 19.2204C92.4782 19.2204 92.0951 19.1394 91.741 18.9827C91.3868 18.8259 91.0694 18.597 90.8091 18.3105C90.5488 18.024 90.3514 17.6862 90.2296 17.319C90.1077 16.9516 90.0641 16.5629 90.1016 16.1778ZM94.4393 16.1778C94.4393 14.9089 93.8686 14.1669 92.8671 14.1669C91.8618 14.1669 91.2963 14.9089 91.2963 16.1778C91.2963 17.4569 91.8619 18.1932 92.8671 18.1932C93.8686 18.1932 94.4393 17.4518 94.4393 16.1778Z" fill="white"/>
<path d="M96.8476 17.4518C96.8476 16.3981 97.633 15.7906 99.0272 15.7043L100.615 15.6129V15.1076C100.615 14.4893 100.205 14.1403 99.4148 14.1403C98.7692 14.1403 98.3219 14.377 98.1936 14.7908H97.0738C97.192 13.7854 98.1389 13.1404 99.4683 13.1404C100.937 13.1404 101.766 13.871 101.766 15.1076V19.1073H100.653V18.2845H100.561C100.376 18.5796 100.115 18.8203 99.8055 18.9817C99.4962 19.1432 99.1496 19.2198 98.8011 19.2036C98.555 19.2293 98.3064 19.203 98.0711 19.1267C97.8358 19.0504 97.6192 18.9257 97.4352 18.7606C97.2512 18.5956 97.1037 18.3939 97.0026 18.1685C96.9014 17.943 96.8485 17.6989 96.8476 17.4518ZM100.615 16.9515V16.4622L99.1836 16.5536C98.3765 16.6075 98.0105 16.8817 98.0105 17.3978C98.0105 17.9247 98.468 18.2312 99.0971 18.2312C99.2816 18.25 99.4678 18.2312 99.6448 18.1766C99.8218 18.1219 99.9859 18.0321 100.127 17.9127C100.269 17.7934 100.385 17.6468 100.469 17.4817C100.553 17.3164 100.602 17.1363 100.615 16.9515Z" fill="white"/>
<path d="M103.285 16.1777C103.285 14.328 104.237 13.1562 105.717 13.1562C106.083 13.1394 106.447 13.227 106.765 13.4089C107.083 13.5907 107.343 13.8593 107.514 14.1832H107.601V10.9681H108.757V19.1072H107.649V18.1822H107.558C107.373 18.504 107.104 18.7692 106.78 18.9492C106.455 19.1293 106.088 19.2173 105.717 19.2036C104.226 19.2036 103.285 18.0318 103.285 16.1777ZM104.479 16.1777C104.479 17.4192 105.065 18.1664 106.045 18.1664C107.02 18.1664 107.622 17.4085 107.622 16.1828C107.622 14.9628 107.014 14.1941 106.045 14.1941C105.072 14.1941 104.479 14.9463 104.479 16.1777Z" fill="white"/>
<path d="M113.543 16.1776C113.506 15.7929 113.55 15.4049 113.672 15.0381C113.794 14.6714 113.992 14.3343 114.252 14.0483C114.512 13.7623 114.829 13.5339 115.183 13.3775C115.537 13.2211 115.92 13.1404 116.307 13.1404C116.693 13.1404 117.076 13.2211 117.43 13.3775C117.784 13.5339 118.101 13.7623 118.361 14.0483C118.621 14.3343 118.819 14.6714 118.941 15.0381C119.063 15.4049 119.107 15.7929 119.07 16.1776C119.108 16.5628 119.064 16.9515 118.942 17.3187C118.82 17.686 118.623 18.0237 118.363 18.3102C118.103 18.5967 117.785 18.8258 117.431 18.9825C117.077 19.1392 116.694 19.2201 116.307 19.2201C115.919 19.2201 115.536 19.1392 115.182 18.9825C114.828 18.8258 114.51 18.5967 114.25 18.3102C113.99 18.0237 113.792 17.686 113.671 17.3187C113.549 16.9515 113.505 16.5628 113.543 16.1776ZM117.88 16.1776C117.88 14.9088 117.31 14.1667 116.308 14.1667C115.303 14.1667 114.738 14.9088 114.738 16.1777C114.738 17.4566 115.303 18.193 116.308 18.193C117.31 18.193 117.88 17.4516 117.88 16.1776Z" fill="white"/>
<path d="M120.621 13.2532H121.734V14.1831H121.821C121.967 13.8492 122.215 13.5691 122.528 13.3822C122.842 13.1953 123.206 13.1106 123.57 13.1401C123.855 13.1188 124.141 13.1617 124.407 13.2659C124.674 13.37 124.913 13.5326 125.108 13.7418C125.303 13.9508 125.448 14.2011 125.533 14.4738C125.618 14.7466 125.64 15.0349 125.598 15.3174V19.1069H124.441V15.6075C124.441 14.6669 124.032 14.199 123.177 14.199C122.983 14.19 122.79 14.2229 122.61 14.2955C122.431 14.3681 122.269 14.4786 122.136 14.6195C122.003 14.7605 121.902 14.9283 121.84 15.1119C121.778 15.2953 121.757 15.4899 121.778 15.6824V19.107H120.621V13.2532Z" fill="white"/>
<path d="M132.133 11.7957V13.2798H133.403V14.2529H132.133V17.263C132.133 17.8762 132.386 18.1446 132.962 18.1446C133.109 18.1442 133.257 18.1353 133.403 18.118V19.0802C133.195 19.1174 132.985 19.1372 132.774 19.1392C131.488 19.1392 130.976 18.6874 130.976 17.5587V14.2528H130.045V13.2798H130.976V11.7957H132.133Z" fill="white"/>
<path d="M134.984 10.9681H136.13V14.1941H136.222C136.376 13.8569 136.63 13.5753 136.949 13.3877C137.269 13.2001 137.639 13.1155 138.009 13.1454C138.292 13.13 138.576 13.1773 138.839 13.2839C139.103 13.3905 139.339 13.554 139.532 13.7623C139.724 13.9709 139.869 14.2192 139.954 14.4898C140.04 14.7604 140.065 15.0465 140.027 15.3277V19.1072H138.869V15.6128C138.869 14.6777 138.433 14.2042 137.616 14.2042C137.417 14.1878 137.217 14.2151 137.03 14.2842C136.843 14.3531 136.673 14.4621 136.533 14.6034C136.392 14.7448 136.284 14.9152 136.217 15.1025C136.149 15.2898 136.123 15.4898 136.141 15.6883V19.107H134.984V10.9681Z" fill="white"/>
<path d="M146.77 17.5267C146.614 18.0618 146.273 18.5246 145.808 18.8341C145.345 19.1437 144.785 19.2804 144.231 19.2203C143.844 19.2305 143.462 19.1566 143.107 19.0039C142.753 18.851 142.435 18.623 142.177 18.3355C141.92 18.048 141.728 17.708 141.615 17.3391C141.502 16.97 141.471 16.5809 141.524 16.1989C141.473 15.8155 141.505 15.4255 141.616 15.0555C141.73 14.6854 141.92 14.3438 142.176 14.0539C142.432 13.7638 142.749 13.5322 143.101 13.3746C143.455 13.217 143.839 13.1372 144.226 13.1405C145.856 13.1405 146.84 14.2533 146.84 16.0915V16.4946H142.702V16.5593C142.684 16.7742 142.711 16.9904 142.781 17.1941C142.851 17.398 142.965 17.5848 143.112 17.7427C143.258 17.9006 143.437 18.026 143.635 18.111C143.833 18.196 144.048 18.2388 144.264 18.2363C144.539 18.2695 144.819 18.2198 145.068 18.0935C145.316 17.967 145.522 17.7698 145.657 17.5267H146.77ZM142.702 15.6402H145.663C145.677 15.4437 145.65 15.2463 145.583 15.0608C145.517 14.8753 145.413 14.7057 145.277 14.5629C145.141 14.4201 144.977 14.3072 144.795 14.2316C144.612 14.156 144.417 14.1192 144.219 14.1238C144.02 14.1212 143.821 14.1588 143.636 14.234C143.45 14.3094 143.282 14.4211 143.14 14.5624C143 14.7037 142.888 14.8718 142.812 15.0569C142.737 15.2421 142.699 15.4404 142.702 15.6402Z" fill="white"/>
</svg>
