<svg width="504" height="520" viewBox="0 0 504 520" fill="none" xmlns="http://www.w3.org/2000/svg">
<g filter="url(#filter0_dd_2_213)">
<path d="M23 38C23 29.7157 29.7157 23 38 23H454C462.284 23 469 29.7157 469 38V470C469 478.284 462.284 485 454 485H38C29.7157 485 23 478.284 23 470V38Z" fill="url(#paint0_linear_2_213)"/>
<rect x="27.25" y="27.25" width="437.5" height="453.5" rx="12.75" fill="#191E23" stroke="#191E23" stroke-width="0.5"/>
<path d="M38 24H454V22H38V24ZM468 38V470H470V38H468ZM454 484H38V486H454V484ZM24 470V38H22V470H24ZM38 484C30.268 484 24 477.732 24 470H22C22 478.837 29.1634 486 38 486V484ZM468 470C468 477.732 461.732 484 454 484V486C462.837 486 470 478.837 470 470H468ZM454 24C461.732 24 468 30.268 468 38H470C470 29.1634 462.837 22 454 22V24ZM38 22C29.1634 22 22 29.1635 22 38H24C24 30.268 30.268 24 38 24V22Z" fill="url(#paint1_linear_2_213)"/>
</g>
<defs>
<filter id="filter0_dd_2_213" x="0" y="0" width="504" height="520" filterUnits="userSpaceOnUse" color-interpolation-filters="sRGB">
<feFlood flood-opacity="0" result="BackgroundImageFix"/>
<feColorMatrix in="SourceAlpha" type="matrix" values="0 0 0 0 0 0 0 0 0 0 0 0 0 0 0 0 0 0 127 0" result="hardAlpha"/>
<feOffset dx="-8" dy="-8"/>
<feGaussianBlur stdDeviation="7.5"/>
<feColorMatrix type="matrix" values="0 0 0 0 1 0 0 0 0 1 0 0 0 0 1 0 0 0 0.15 0"/>
<feBlend mode="normal" in2="BackgroundImageFix" result="effect1_dropShadow_2_213"/>
<feColorMatrix in="SourceAlpha" type="matrix" values="0 0 0 0 0 0 0 0 0 0 0 0 0 0 0 0 0 0 127 0" result="hardAlpha"/>
<feOffset dx="15" dy="15"/>
<feGaussianBlur stdDeviation="10"/>
<feColorMatrix type="matrix" values="0 0 0 0 0 0 0 0 0 0 0 0 0 0 0 0 0 0 0.4 0"/>
<feBlend mode="normal" in2="effect1_dropShadow_2_213" result="effect2_dropShadow_2_213"/>
<feBlend mode="normal" in="SourceGraphic" in2="effect2_dropShadow_2_213" result="shape"/>
</filter>
<linearGradient id="paint0_linear_2_213" x1="27.5246" y1="255.197" x2="469" y2="255.197" gradientUnits="userSpaceOnUse">
<stop stop-color="#2E3133"/>
<stop offset="1" stop-color="#17191A"/>
</linearGradient>
<linearGradient id="paint1_linear_2_213" x1="469" y1="208.518" x2="22.5854" y2="199.783" gradientUnits="userSpaceOnUse">
<stop stop-color="#1B1C1D"/>
<stop offset="1" stop-color="#2E2E2F"/>
</linearGradient>
</defs>
</svg>
