<svg width="176" height="52" viewBox="0 0 176 52" fill="none" xmlns="http://www.w3.org/2000/svg">
<path d="M166.712 0.572021H9.86047C5.164 0.572021 1.35677 4.39014 1.35677 9.10002V42.9C1.35677 47.6099 5.164 51.428 9.86047 51.428H166.712C171.409 51.428 175.216 47.6099 175.216 42.9V9.10002C175.216 4.39014 171.409 0.572021 166.712 0.572021Z" fill="#191E23" stroke="#FFF2DE" stroke-width="1.144"/>
<path d="M62.2556 13.3119C62.2556 14.4039 61.9316 15.2749 61.2834 15.9119C60.5575 16.6789 59.5982 17.0689 58.4316 17.0689C57.3038 17.0689 56.3575 16.6789 55.5668 15.8989C54.776 15.1189 54.3871 14.1439 54.3871 12.9999C54.3871 11.8429 54.776 10.8809 55.5668 10.1009C56.3575 9.3209 57.3038 8.93091 58.4316 8.93091C58.989 8.93091 59.5205 9.03491 60.026 9.25591C60.5316 9.47691 60.9334 9.76291 61.2445 10.1269L60.5575 10.8159C60.039 10.2049 59.339 9.8929 58.4316 9.8929C57.6149 9.8929 56.902 10.1789 56.3057 10.7639C55.7094 11.3359 55.4112 12.0899 55.4112 13.0129C55.4112 13.9359 55.7094 14.6899 56.3057 15.2619C56.902 15.8339 57.6149 16.1329 58.4316 16.1329C59.3001 16.1329 60.026 15.8469 60.6094 15.2619C60.9853 14.8849 61.2057 14.3519 61.2575 13.6759H58.4316V12.7399H62.2038C62.2297 12.9349 62.2556 13.1299 62.2556 13.3119Z" fill="white" stroke="#333333" stroke-width="0.26" stroke-miterlimit="10"/>
<path d="M68.2327 10.0621H64.6938V12.5321H67.8827V13.4681H64.6938V15.9381H68.2327V16.9001H63.6957V9.1001H68.2327V10.0621Z" fill="white" stroke="#333333" stroke-width="0.26" stroke-miterlimit="10"/>
<path d="M72.4448 16.9001H71.4467V10.0621H69.2689V9.1001H74.6097V10.0621H72.4319V16.9001H72.4448Z" fill="white" stroke="#333333" stroke-width="0.26" stroke-miterlimit="10"/>
<path d="M78.4858 16.9001V9.1001H79.484V16.9001H78.4858Z" fill="white" stroke="#333333" stroke-width="0.26" stroke-miterlimit="10"/>
<path d="M83.9167 16.9001H82.9186V10.0621H80.7408V9.1001H86.0815V10.0621H83.9038V16.9001H83.9167Z" fill="white" stroke="#333333" stroke-width="0.26" stroke-miterlimit="10"/>
<path d="M96.2064 15.8859C95.4415 16.6789 94.4952 17.0689 93.3545 17.0689C92.2138 17.0689 91.2675 16.6789 90.5026 15.8859C89.7378 15.0929 89.3619 14.1309 89.3619 12.9999C89.3619 11.8689 89.7378 10.8939 90.5026 10.1139C91.2675 9.3209 92.2138 8.93091 93.3545 8.93091C94.4823 8.93091 95.4286 9.3209 96.2064 10.1139C96.9712 10.9069 97.3601 11.8689 97.3601 12.9999C97.3471 14.1439 96.9712 15.1059 96.2064 15.8859ZM91.2415 15.2359C91.8119 15.8209 92.5249 16.1069 93.3545 16.1069C94.1841 16.1069 94.8971 15.8209 95.4675 15.2359C96.0378 14.6509 96.336 13.9099 96.336 12.9999C96.336 12.0899 96.0508 11.3489 95.4675 10.7639C94.8971 10.1789 94.1841 9.8929 93.3545 9.8929C92.5249 9.8929 91.8119 10.1789 91.2415 10.7639C90.6712 11.3489 90.373 12.0899 90.373 12.9999C90.373 13.9099 90.6712 14.6509 91.2415 15.2359Z" fill="white" stroke="#333333" stroke-width="0.26" stroke-miterlimit="10"/>
<path d="M98.7599 16.9001V9.1001H99.9784L103.764 15.1711H103.802L103.764 13.6631V9.1001H104.762V16.9001H103.725L99.771 10.5431H99.7321L99.771 12.0511V16.9001H98.7599Z" fill="white" stroke="#333333" stroke-width="0.26" stroke-miterlimit="10"/>
<path d="M89.1148 28.275C86.0685 28.275 83.5797 30.602 83.5797 33.8C83.5797 36.985 86.0685 39.325 89.1148 39.325C92.1611 39.325 94.65 36.985 94.65 33.8C94.65 30.602 92.1611 28.275 89.1148 28.275ZM89.1148 37.154C87.4426 37.154 86.0037 35.776 86.0037 33.8C86.0037 31.811 87.4426 30.446 89.1148 30.446C90.7871 30.446 92.226 31.811 92.226 33.8C92.226 35.776 90.7741 37.154 89.1148 37.154ZM77.0334 28.275C73.9871 28.275 71.4982 30.602 71.4982 33.8C71.4982 36.985 73.9871 39.325 77.0334 39.325C80.0797 39.325 82.5685 36.985 82.5685 33.8C82.5685 30.602 80.0797 28.275 77.0334 28.275ZM77.0334 37.154C75.3611 37.154 73.9222 35.776 73.9222 33.8C73.9222 31.811 75.3611 30.446 77.0334 30.446C78.7056 30.446 80.1445 31.811 80.1445 33.8C80.1445 35.776 78.7056 37.154 77.0334 37.154ZM62.6704 29.978V32.318H68.2704C68.1019 33.631 67.6611 34.606 67 35.269C66.1834 36.088 64.913 36.985 62.6834 36.985C59.2352 36.985 56.5389 34.203 56.5389 30.745C56.5389 27.287 59.2352 24.505 62.6834 24.505C64.5371 24.505 65.8982 25.233 66.8963 26.182L68.5426 24.531C67.1426 23.192 65.2889 22.165 62.6704 22.165C57.9519 22.165 53.9852 26.013 53.9852 30.758C53.9852 35.49 57.9519 39.351 62.6704 39.351C65.2241 39.351 67.1426 38.519 68.6463 36.946C70.1889 35.399 70.6685 33.215 70.6685 31.46C70.6685 30.914 70.6297 30.407 70.5389 29.991H62.6704V29.978ZM121.406 31.798C120.952 30.563 119.552 28.275 116.687 28.275C113.848 28.275 111.489 30.511 111.489 33.8C111.489 36.894 113.822 39.325 116.959 39.325C119.487 39.325 120.952 37.778 121.548 36.881L119.669 35.62C119.046 36.543 118.191 37.154 116.959 37.154C115.728 37.154 114.846 36.582 114.289 35.477L121.665 32.422L121.406 31.798ZM113.887 33.644C113.822 31.512 115.533 30.42 116.765 30.42C117.724 30.42 118.541 30.901 118.813 31.59L113.887 33.644ZM107.898 39H110.322V22.75H107.898V39ZM103.932 29.51H103.841C103.296 28.86 102.259 28.275 100.937 28.275C98.176 28.275 95.6482 30.706 95.6482 33.826C95.6482 36.92 98.176 39.338 100.937 39.338C102.246 39.338 103.296 38.753 103.841 38.077H103.919V38.87C103.919 40.989 102.791 42.12 100.976 42.12C99.4982 42.12 98.5778 41.054 98.2019 40.157L96.0889 41.041C96.6982 42.51 98.3056 44.304 100.976 44.304C103.815 44.304 106.213 42.627 106.213 38.545V28.613H103.919V29.51H103.932ZM101.144 37.154C99.4722 37.154 98.0723 35.75 98.0723 33.826C98.0723 31.876 99.4722 30.459 101.144 30.459C102.791 30.459 104.087 31.889 104.087 33.826C104.1 35.75 102.804 37.154 101.144 37.154ZM132.761 22.75H126.967V39H129.391V32.838H132.774C135.457 32.838 138.089 30.888 138.089 27.794C138.089 24.7 135.432 22.75 132.761 22.75ZM132.813 30.576H129.378V24.999H132.813C134.628 24.999 135.652 26.507 135.652 27.781C135.652 29.055 134.628 30.576 132.813 30.576ZM147.772 28.249C146.022 28.249 144.207 29.029 143.456 30.732L145.607 31.629C146.061 30.732 146.917 30.433 147.811 30.433C149.056 30.433 150.339 31.187 150.352 32.526V32.695C149.911 32.448 148.978 32.071 147.824 32.071C145.504 32.071 143.157 33.345 143.157 35.724C143.157 37.895 145.05 39.299 147.176 39.299C148.796 39.299 149.704 38.571 150.261 37.713H150.339V38.974H152.672V32.747C152.685 29.861 150.533 28.249 147.772 28.249ZM147.474 37.154C146.683 37.154 145.582 36.751 145.582 35.776C145.582 34.528 146.956 34.047 148.148 34.047C149.211 34.047 149.717 34.281 150.352 34.593C150.17 36.088 148.874 37.154 147.474 37.154ZM161.189 28.6L158.415 35.646H158.337L155.459 28.6H152.854L157.17 38.454L154.707 43.927H157.235L163.885 28.6H161.189ZM139.411 39H141.835V22.75H139.411V39Z" fill="white"/>
<path d="M14.3191 9.80145C13.9432 10.2044 13.7228 10.8284 13.7228 11.6214V40.3775C13.7228 41.1835 13.9432 41.8075 14.3191 42.1975L14.4098 42.2885L30.4709 26.1945V25.9995V25.8045L14.4098 9.71045L14.3191 9.80145Z" fill="url(#paint0_linear_2_306)"/>
<path d="M35.8253 31.5642L30.4716 26.1952V26.0002V25.8052L35.8253 20.4362L35.942 20.5012L42.2809 24.1152C44.0957 25.1422 44.0957 26.8322 42.2809 27.8722L35.942 31.4862L35.8253 31.5642Z" fill="url(#paint1_linear_2_306)"/>
<path d="M35.942 31.486L30.4716 26L14.3197 42.198C14.916 42.835 15.9012 42.913 17.016 42.276L35.942 31.486Z" fill="url(#paint2_linear_2_306)"/>
<path d="M35.9408 20.5138L17.0019 9.7238C15.8871 9.0868 14.9019 9.1648 14.3056 9.8018L30.4704 25.9998L35.9408 20.5138Z" fill="url(#paint3_linear_2_306)"/>
<path opacity="0.2" d="M35.8253 31.3687L17.0031 42.0937C15.9531 42.6917 15.0068 42.6527 14.4105 42.1067L14.3197 42.1977L14.4105 42.2887C15.0197 42.8347 15.9531 42.8737 17.0031 42.2757L35.942 31.4857L35.8253 31.3687Z" fill="white"/>
<path opacity="0.12" d="M14.319 42.016C13.9431 41.613 13.7227 40.989 13.7227 40.196V40.391C13.7227 41.197 13.9431 41.821 14.319 42.211L14.4098 42.12L14.319 42.016Z" fill="white"/>
<path opacity="0.12" d="M42.2796 27.69L35.8111 31.369L35.9277 31.486L42.2666 27.872C43.174 27.352 43.6277 26.676 43.6277 26C43.5629 26.611 43.1092 27.222 42.2796 27.69Z" fill="white"/>
<path opacity="0.25" d="M17.0024 9.90586L42.2802 24.3099C43.0969 24.7779 43.5635 25.3759 43.6413 25.9999C43.6413 25.3239 43.1876 24.6349 42.2802 24.1279L17.0024 9.72386C15.1876 8.69686 13.7098 9.55486 13.7098 11.6349V11.8299C13.7098 9.73686 15.2006 8.87886 17.0024 9.90586Z" fill="#333333"/>
<defs>
<linearGradient id="paint0_linear_2_306" x1="29.0446" y1="11.3221" x2="7.22761" y2="33.077" gradientUnits="userSpaceOnUse">
<stop stop-color="#00A0FF"/>
<stop offset="0.00657445" stop-color="#00A1FF"/>
<stop offset="0.2601" stop-color="#00BEFF"/>
<stop offset="0.5122" stop-color="#00D2FF"/>
<stop offset="0.7604" stop-color="#00DFFF"/>
<stop offset="1" stop-color="#00E3FF"/>
</linearGradient>
<linearGradient id="paint1_linear_2_306" x1="44.6458" y1="26.002" x2="13.2795" y2="26.002" gradientUnits="userSpaceOnUse">
<stop stop-color="#FFE000"/>
<stop offset="0.4087" stop-color="#FFBD00"/>
<stop offset="0.7754" stop-color="#FFA500"/>
<stop offset="1" stop-color="#FF9C00"/>
</linearGradient>
<linearGradient id="paint2_linear_2_306" x1="32.9695" y1="28.9849" x2="3.38388" y2="58.4863" gradientUnits="userSpaceOnUse">
<stop stop-color="#FF3A44"/>
<stop offset="1" stop-color="#C31162"/>
</linearGradient>
<linearGradient id="paint3_linear_2_306" x1="10.2447" y1="0.228857" x2="23.456" y2="13.4024" gradientUnits="userSpaceOnUse">
<stop stop-color="#32A071"/>
<stop offset="0.0685" stop-color="#2DA771"/>
<stop offset="0.4762" stop-color="#15CF74"/>
<stop offset="0.8009" stop-color="#06E775"/>
<stop offset="1" stop-color="#00F076"/>
</linearGradient>
</defs>
</svg>
