<svg width="46" height="16" viewBox="0 0 46 16" fill="none" xmlns="http://www.w3.org/2000/svg">
<path d="M12.8474 3.96959C12.4265 4.24842 12.3096 4.81296 12.5863 5.23051C12.863 5.64806 13.4284 5.76052 13.8492 5.48168C14.2701 5.20285 14.387 4.63831 14.1103 4.22076C13.8336 3.80321 13.2682 3.69075 12.8474 3.96959Z" fill="#B9B9B9"/>
<path fill-rule="evenodd" clip-rule="evenodd" d="M2.20157 11.2915C1.28927 9.76274 0.918236 7.97134 1.14824 6.20595C1.37824 4.44057 2.19589 2.80403 3.46943 1.56002C3.75151 1.28449 4.20354 1.28979 4.47907 1.57187C4.7546 1.85394 4.7493 2.30597 4.46722 2.5815C3.42312 3.60139 2.75277 4.9431 2.56421 6.39043C2.37564 7.83777 2.67984 9.30644 3.42777 10.5598C4.17571 11.8132 5.32383 12.7782 6.68714 13.2995C8.05045 13.8208 9.54956 13.8679 10.9429 13.4332C12.3363 12.9986 13.5427 12.1075 14.3679 10.9036C15.193 9.69963 15.5888 8.25295 15.4915 6.79664C15.4652 6.4032 15.7628 6.06294 16.1562 6.03665C16.5497 6.01035 16.8899 6.30798 16.9162 6.70142C17.0349 8.47776 16.5522 10.2423 15.5457 11.7108C14.5392 13.1793 13.0677 14.2662 11.3681 14.7964C9.6686 15.3265 7.84007 15.2691 6.17717 14.6333C4.51428 13.9975 3.11386 12.8203 2.20157 11.2915Z" fill="#B9B9B9"/>
<path fill-rule="evenodd" clip-rule="evenodd" d="M7.19377 11.9642C6.14082 11.5757 5.24932 10.844 4.66293 9.88707C4.07653 8.9301 3.82939 7.80358 3.96132 6.68903C4.00767 6.29745 4.36268 6.01759 4.75427 6.06394C5.14585 6.11029 5.42571 6.4653 5.37936 6.85688C5.28513 7.65293 5.46164 8.45751 5.88046 9.141C6.29928 9.82449 6.93601 10.3471 7.68805 10.6246C8.4401 10.902 9.26366 10.9182 10.026 10.6706C10.7884 10.4229 11.4452 9.92577 11.8906 9.25929C12.336 8.59282 12.544 7.7958 12.4812 6.99666C12.4503 6.60356 12.7439 6.25984 13.137 6.22893C13.5301 6.19802 13.8738 6.49164 13.9047 6.88474C13.9927 8.00362 13.7014 9.11954 13.0778 10.0527C12.4542 10.9858 11.5347 11.6819 10.4672 12.0286C9.39981 12.3754 8.24672 12.3527 7.19377 11.9642Z" fill="#B9B9B9"/>
<path fill-rule="evenodd" clip-rule="evenodd" d="M14.1944 1.60455C14.791 1.7838 15.3098 2.15865 15.6672 2.66871C15.8936 2.99161 15.8153 3.43684 15.4923 3.66315C15.1694 3.88947 14.7242 3.81117 14.4979 3.48827C14.3245 3.24086 14.0729 3.05903 13.7835 2.97208C13.4942 2.88514 13.184 2.89813 12.9029 3.00898C12.6219 3.11983 12.3863 3.32208 12.2342 3.58313C12.0357 3.92383 11.5986 4.0391 11.2579 3.8406C10.9172 3.64209 10.8019 3.20498 11.0004 2.86427C11.314 2.32609 11.7996 1.90915 12.379 1.68063C12.9584 1.4521 13.5979 1.4253 14.1944 1.60455Z" fill="#B9B9B9"/>
<path d="M27.7667 6.88691H25.7657C25.6435 6.34553 25.4653 5.96552 25.231 5.74689C25.007 5.52825 24.6862 5.41894 24.2687 5.41894C23.6373 5.41894 23.1994 5.64798 22.955 6.10607C22.6902 6.63704 22.5578 7.28773 22.5578 8.05816C22.5578 8.83899 22.7055 9.45845 23.0008 9.91654C23.3063 10.3642 23.7239 10.5881 24.2534 10.5881C24.6709 10.5881 24.9917 10.4787 25.2158 10.2601C25.45 10.0311 25.6333 9.65626 25.7657 9.13571H27.7667C27.6649 10.1768 27.2576 10.9837 26.5447 11.5563C25.9235 12.0664 25.1547 12.3215 24.2381 12.3215C22.955 12.3215 21.9825 11.8999 21.3205 11.0566C20.7401 10.3278 20.4498 9.34393 20.4498 8.10501C20.4498 6.60581 20.8317 5.47099 21.5955 4.70057C22.2574 4.02385 23.1536 3.68549 24.284 3.68549C25.3634 3.68549 26.2188 4.00303 26.8502 4.6381C27.39 5.2003 27.6955 5.9499 27.7667 6.88691Z" fill="#B9B9B9"/>
<path d="M36.3965 12.1341H34.3038V10.9629C33.7335 11.8582 32.9239 12.3059 31.875 12.3059C30.9483 12.3059 30.2456 12.0248 29.767 11.4626C29.3596 10.9733 29.156 10.3018 29.156 9.44804V3.85727H31.264V8.99516C31.264 9.98421 31.7121 10.4787 32.6082 10.4787C33.1174 10.4787 33.5247 10.333 33.8302 10.0415C34.1459 9.74996 34.3038 9.35434 34.3038 8.85461V3.85727H36.3965V12.1341Z" fill="#B9B9B9"/>
<path d="M45.4336 8.55789H39.9955C40.0261 9.2242 40.1279 9.69791 40.301 9.97901C40.5964 10.4371 41.0597 10.6661 41.6911 10.6661C42.4752 10.6661 42.9997 10.333 43.2645 9.66667H45.3419C45.1077 10.4787 44.6494 11.1242 43.9671 11.6031C43.295 12.0716 42.5058 12.3059 41.5994 12.3059C40.3672 12.3059 39.4202 11.8842 38.7582 11.0409C38.1778 10.3018 37.8875 9.32831 37.8875 8.12062C37.8875 6.65266 38.2643 5.51784 39.0179 4.71619C39.6798 4.02905 40.5505 3.68549 41.63 3.68549C42.4549 3.68549 43.1779 3.89371 43.7991 4.31015C44.4203 4.7266 44.8633 5.30962 45.1281 6.05922C45.3419 6.64224 45.4488 7.345 45.4488 8.16747C45.4488 8.27158 45.4438 8.40172 45.4336 8.55789ZM43.2492 7.13677C43.1474 5.92908 42.6025 5.32524 41.6147 5.32524C40.688 5.32524 40.1585 5.92908 40.0261 7.13677H43.2492Z" fill="#B9B9B9"/>
</svg>
