<svg width="26" height="25" viewBox="0 0 26 25" fill="none" xmlns="http://www.w3.org/2000/svg">
<path d="M24.4091 3.13541C24.4091 3.13541 22.307 4.37708 21.1383 4.72916C20.5109 4.00782 19.6772 3.49655 18.7498 3.2645C17.8224 3.03246 16.8461 3.09083 15.9529 3.43172C15.0598 3.77261 14.2929 4.37958 13.756 5.17053C13.219 5.96149 12.9379 6.89826 12.9508 7.85416V8.89583C11.1202 8.9433 9.30626 8.5373 7.67056 7.714C6.03487 6.8907 4.62818 5.67566 3.57576 4.17708C3.57576 4.17708 -0.590901 13.5521 8.7841 17.7187C6.63881 19.175 4.08322 19.9051 1.49243 19.8021C10.8674 25.0104 22.3258 19.8021 22.3258 7.82291C22.3258 7.53333 22.2966 7.24375 22.2424 6.95833C23.3049 5.91041 24.4091 3.13541 24.4091 3.13541Z" stroke="#B9B9B9" stroke-width="1.5" stroke-linecap="round" stroke-linejoin="round"/>
</svg>
