<svg width="24" height="23" viewBox="0 0 24 23" fill="none" xmlns="http://www.w3.org/2000/svg">
<path d="M22.8374 0.864883C22.2608 0.288207 21.57 0 20.7651 0H3.73843C2.93329 0 2.24262 0.288312 1.66594 0.864883C1.08937 1.4413 0.801163 2.13208 0.801163 2.93706V19.9635C0.801163 20.7684 1.08932 21.4594 1.66594 22.0358C2.24262 22.6123 2.93345 22.9008 3.73843 22.9008H20.7649C21.5696 22.9008 22.2607 22.6123 22.8372 22.0358C23.4139 21.4594 23.7018 20.7684 23.7018 19.9635V2.93706C23.7018 2.13192 23.4139 1.44151 22.8374 0.864883ZM9.02393 8.25221C9.92338 7.38263 11.0044 6.94763 12.2667 6.94763C13.5388 6.94763 14.6246 7.38263 15.5243 8.25221C16.4239 9.12195 16.8735 10.1732 16.8735 11.4056C16.8735 12.6379 16.4239 13.6892 15.5243 14.5587C14.6246 15.4286 13.5392 15.8636 12.2667 15.8636C11.0044 15.8636 9.92354 15.4283 9.02393 14.5587C8.12426 13.6891 7.67448 12.6379 7.67448 11.4056C7.67448 10.1732 8.12426 9.12201 9.02393 8.25221ZM21.108 19.3525C21.108 19.6107 21.0183 19.8268 20.8395 20.0009C20.6603 20.1748 20.4469 20.2618 20.1982 20.2618H4.26033C4.00194 20.2618 3.78559 20.1748 3.6118 20.0009C3.43775 19.8272 3.3508 19.6107 3.3508 19.3525V9.6909H5.45295C5.25425 10.3172 5.15488 10.9683 5.15488 11.6441C5.15488 13.5529 5.85056 15.1802 7.24209 16.5273C8.63378 17.8739 10.3086 18.5475 12.2666 18.5475C13.5588 18.5475 14.7515 18.2392 15.8452 17.623C16.9385 17.0064 17.8027 16.1692 18.4393 15.1105C19.0755 14.0519 19.3936 12.8964 19.3936 11.6441C19.3936 10.9684 19.2939 10.3174 19.0952 9.69095H21.1081V19.3526H21.108V19.3525ZM21.108 6.0381C21.108 6.32636 21.0086 6.56992 20.8095 6.76867C20.6108 6.96758 20.3674 7.0669 20.079 7.0669H17.4849C17.1968 7.0669 16.953 6.96753 16.7543 6.76867C16.5555 6.56992 16.4562 6.32636 16.4562 6.0381V3.57828C16.4562 3.29995 16.5555 3.05895 16.7543 2.85513C16.953 2.65141 17.1968 2.54943 17.4849 2.54943H20.079C20.3674 2.54943 20.6109 2.65136 20.8095 2.85513C21.0086 3.05895 21.108 3.29995 21.108 3.57828V6.0381Z" fill="#B9B9B9"/>
</svg>
