<svg width="99" height="35" viewBox="0 0 99 35" fill="none" xmlns="http://www.w3.org/2000/svg">
<path d="M27.2713 8.62497C26.3454 9.23844 26.0882 10.4805 26.6969 11.3991C27.3056 12.3178 28.5496 12.5652 29.4754 11.9517C30.4013 11.3383 30.6585 10.0962 30.0498 9.17757C29.4412 8.25892 28.1972 8.01151 27.2713 8.62497Z" fill="white"/>
<path fill-rule="evenodd" clip-rule="evenodd" d="M3.8514 24.7339C1.84427 21.3704 1.02796 17.4292 1.53398 13.5452C2.04001 9.66119 3.8389 6.06066 6.64081 3.32373C7.2614 2.71753 8.2559 2.7292 8.8621 3.34979C9.46829 3.97038 9.45662 4.96488 8.83604 5.57107C6.53891 7.81492 5.0641 10.7668 4.64924 13.9511C4.23438 17.1353 4.90363 20.3665 6.54916 23.124C8.19468 25.8815 10.7206 28.0048 13.7201 29.1516C16.7195 30.2984 20.0176 30.4021 23.0831 29.4458C26.1486 28.4895 28.8029 26.5291 30.6183 23.8803C32.4337 21.2316 33.3045 18.0488 33.0903 14.8447C33.0325 13.9791 33.6873 13.2305 34.5529 13.1727C35.4185 13.1148 36.1671 13.7697 36.2249 14.6352C36.4861 18.5433 35.424 22.4256 33.2096 25.6564C30.9953 28.8872 27.7577 31.2785 24.0186 32.4449C20.2795 33.6112 16.2566 33.4848 12.5981 32.086C8.93956 30.6872 5.85852 28.0974 3.8514 24.7339Z" fill="white"/>
<path fill-rule="evenodd" clip-rule="evenodd" d="M14.835 26.2138C12.5185 25.3591 10.5571 23.7494 9.26697 21.6439C7.97685 19.5385 7.43311 17.0601 7.72337 14.608C7.82535 13.7465 8.60641 13.1308 9.46792 13.2327C10.3294 13.3347 10.9452 14.1158 10.8432 14.9773C10.6359 16.7286 11.0242 18.4988 11.9457 20.0025C12.8671 21.5063 14.2679 22.656 15.9225 23.2665C17.5771 23.8769 19.389 23.9126 21.0663 23.3677C22.7436 22.8228 24.1886 21.7291 25.1685 20.2628C26.1484 18.7965 26.6061 17.043 26.4679 15.2848C26.3999 14.42 27.0458 13.6637 27.9107 13.5957C28.7755 13.5277 29.5318 14.1737 29.5998 15.0386C29.7933 17.5002 29.1525 19.9553 27.7805 22.0083C26.4086 24.0613 24.3854 25.5927 22.0369 26.3556C19.6885 27.1185 17.1516 27.0686 14.835 26.2138Z" fill="white"/>
<path fill-rule="evenodd" clip-rule="evenodd" d="M30.2376 3.42167C31.55 3.81603 32.6914 4.64074 33.4779 5.76291C33.9758 6.47332 33.8036 7.45286 33.0931 7.95077C32.3827 8.44868 31.4032 8.27642 30.9053 7.566C30.5238 7.02168 29.9701 6.62164 29.3335 6.43035C28.697 6.23906 28.0145 6.26766 27.3962 6.51154C26.7778 6.75542 26.2596 7.20037 25.9249 7.7747C25.4882 8.52428 24.5265 8.77789 23.7769 8.34116C23.0274 7.90443 22.7737 6.94274 23.2105 6.19317C23.9003 5.00912 24.9687 4.09181 26.2435 3.58904C27.5183 3.08626 28.9252 3.02731 30.2376 3.42167Z" fill="white"/>
<path d="M60.0978 15.0434H55.6953C55.4264 13.8523 55.0344 13.0163 54.519 12.5353C54.0261 12.0542 53.3204 11.8137 52.4018 11.8137C51.0127 11.8137 50.0493 12.3177 49.5116 13.3255C48.9291 14.4937 48.6378 15.9253 48.6378 17.6203C48.6378 19.3382 48.9627 20.701 49.6124 21.7089C50.2845 22.6938 51.2031 23.1863 52.3682 23.1863C53.2868 23.1863 53.9925 22.9458 54.4854 22.4647C55.0008 21.9608 55.404 21.1362 55.6953 19.991H60.0978C59.8738 22.2815 58.9776 24.0567 57.4093 25.3165C56.0426 26.4388 54.351 27 52.3346 27C49.5116 27 47.3719 26.0723 45.9156 24.217C44.6385 22.6136 44 20.4491 44 17.7233C44 14.425 44.8402 11.9283 46.5205 10.2333C47.9769 8.74442 49.9485 8 52.4354 8C54.8103 8 56.6923 8.69861 58.0814 10.0958C59.2689 11.3327 59.941 12.9819 60.0978 15.0434Z" fill="white"/>
<path d="M79.0841 26.5877H74.4799V24.0108C73.2252 25.9807 71.444 26.9656 69.1363 26.9656C67.0975 26.9656 65.5516 26.3472 64.4985 25.1103C63.6024 24.0338 63.1543 22.5564 63.1543 20.6781V8.37794H67.7921V19.6817C67.7921 21.8577 68.7779 22.9458 70.7495 22.9458C71.8697 22.9458 72.7659 22.6251 73.4381 21.9837C74.1326 21.3424 74.4799 20.472 74.4799 19.3725V8.37794H79.0841V26.5877Z" fill="white"/>
<path d="M98.9664 18.7197H87.0022C87.0694 20.1857 87.2935 21.2278 87.6744 21.8463C88.3241 22.8541 89.3435 23.358 90.7326 23.358C92.4578 23.358 93.6116 22.6251 94.1942 21.1591H98.7647C98.2494 22.9458 97.2412 24.3659 95.7401 25.4195C94.2614 26.4503 92.525 26.9656 90.531 26.9656C87.82 26.9656 85.7364 26.038 84.2801 24.1826C83.003 22.5564 82.3644 20.4147 82.3644 17.7577C82.3644 14.528 83.1934 12.0313 84.8514 10.2676C86.3077 8.75588 88.2233 8 90.5982 8C92.413 8 94.0037 8.45811 95.3704 9.37432C96.7371 10.2905 97.7117 11.5732 98.2943 13.2224C98.7648 14.5051 99 16.0512 99 17.8608C99 18.0898 98.9888 18.3761 98.9664 18.7197ZM94.1606 15.5931C93.9365 12.9361 92.7379 11.6076 90.5646 11.6076C88.5258 11.6076 87.3607 12.9361 87.0695 15.5931H94.1606Z" fill="white"/>
</svg>
