<svg width="25" height="24" viewBox="0 0 25 24" fill="none" xmlns="http://www.w3.org/2000/svg">
<path d="M12.5 2C6.986 2 2.5 6.486 2.5 12V16.143C2.5 17.167 3.397 18 4.5 18H5.5C5.76522 18 6.01957 17.8946 6.20711 17.7071C6.39464 17.5196 6.5 17.2652 6.5 17V11.857C6.5 11.5918 6.39464 11.3374 6.20711 11.1499C6.01957 10.9624 5.76522 10.857 5.5 10.857H4.592C5.148 6.987 8.478 4 12.5 4C16.522 4 19.852 6.987 20.408 10.857H19.5C19.2348 10.857 18.9804 10.9624 18.7929 11.1499C18.6054 11.3374 18.5 11.5918 18.5 11.857V18C18.5 19.103 17.603 20 16.5 20H14.5V19H10.5V22H16.5C18.706 22 20.5 20.206 20.5 18C21.603 18 22.5 17.167 22.5 16.143V12C22.5 6.486 18.014 2 12.5 2Z" fill="#FFF2DE"/>
</svg>
