<svg width="264" height="96" viewBox="0 0 264 96" fill="none" xmlns="http://www.w3.org/2000/svg">
<g filter="url(#filter0_dd_2_150)">
<path d="M20.5 48C20.5 32.536 33.036 20 48.5 20H215.5C230.964 20 243.5 32.536 243.5 48C243.5 63.464 230.964 76 215.5 76H48.5C33.036 76 20.5 63.464 20.5 48Z" fill="url(#paint0_linear_2_150)"/>
<path d="M75.7044 48.256C76.1098 48.32 76.4778 48.4853 76.8084 48.752C77.1498 49.0187 77.4164 49.3493 77.6084 49.744C77.8111 50.1387 77.9124 50.56 77.9124 51.008C77.9124 51.5733 77.7684 52.0853 77.4804 52.544C77.1924 52.992 76.7711 53.3493 76.2164 53.616C75.6724 53.872 75.0271 54 74.2804 54H70.1204V42.848H74.1204C74.8778 42.848 75.5231 42.976 76.0564 43.232C76.5898 43.4773 76.9898 43.8133 77.2564 44.24C77.5231 44.6667 77.6564 45.1467 77.6564 45.68C77.6564 46.3413 77.4751 46.8907 77.1124 47.328C76.7604 47.7547 76.2911 48.064 75.7044 48.256ZM71.5764 47.664H74.0244C74.7071 47.664 75.2351 47.504 75.6084 47.184C75.9818 46.864 76.1684 46.4213 76.1684 45.856C76.1684 45.2907 75.9818 44.848 75.6084 44.528C75.2351 44.208 74.6964 44.048 73.9924 44.048H71.5764V47.664ZM74.1524 52.8C74.8778 52.8 75.4431 52.6293 75.8484 52.288C76.2538 51.9467 76.4564 51.472 76.4564 50.864C76.4564 50.2453 76.2431 49.76 75.8164 49.408C75.3898 49.0453 74.8191 48.864 74.1044 48.864H71.5764V52.8H74.1524ZM88.6689 45.232V54H87.2129V52.704C86.9356 53.152 86.5463 53.504 86.0449 53.76C85.5543 54.0053 85.0103 54.128 84.4129 54.128C83.7303 54.128 83.1169 53.9893 82.5729 53.712C82.0289 53.424 81.5969 52.9973 81.2769 52.432C80.9676 51.8667 80.8129 51.1787 80.8129 50.368V45.232H82.2529V50.176C82.2529 51.04 82.4716 51.7067 82.9089 52.176C83.3463 52.6347 83.9436 52.864 84.7009 52.864C85.4796 52.864 86.0929 52.624 86.5409 52.144C86.9889 51.664 87.2129 50.9653 87.2129 50.048V45.232H88.6689ZM99.6393 45.232L94.3593 58.128H92.8553L94.5833 53.904L91.0473 45.232H92.6633L95.4153 52.336L98.1353 45.232H99.6393ZM114.745 46.112C114.745 47.04 114.425 47.8133 113.785 48.432C113.155 49.04 112.19 49.344 110.889 49.344H108.745V54H107.289V42.848H110.889C112.147 42.848 113.102 43.152 113.753 43.76C114.414 44.368 114.745 45.152 114.745 46.112ZM110.889 48.144C111.699 48.144 112.297 47.968 112.681 47.616C113.065 47.264 113.257 46.7627 113.257 46.112C113.257 44.736 112.467 44.048 110.889 44.048H108.745V48.144H110.889ZM116.97 49.584C116.97 48.688 117.152 47.904 117.514 47.232C117.877 46.5493 118.373 46.0213 119.002 45.648C119.642 45.2747 120.352 45.088 121.13 45.088C121.898 45.088 122.565 45.2533 123.13 45.584C123.696 45.9147 124.117 46.3307 124.394 46.832V45.232H125.866V54H124.394V52.368C124.106 52.88 123.674 53.3067 123.098 53.648C122.533 53.9787 121.872 54.144 121.114 54.144C120.336 54.144 119.632 53.952 119.002 53.568C118.373 53.184 117.877 52.6453 117.514 51.952C117.152 51.2587 116.97 50.4693 116.97 49.584ZM124.394 49.6C124.394 48.9387 124.261 48.3627 123.994 47.872C123.728 47.3813 123.365 47.008 122.906 46.752C122.458 46.4853 121.962 46.352 121.418 46.352C120.874 46.352 120.378 46.48 119.93 46.736C119.482 46.992 119.125 47.3653 118.858 47.856C118.592 48.3467 118.458 48.9227 118.458 49.584C118.458 50.256 118.592 50.8427 118.858 51.344C119.125 51.8347 119.482 52.2133 119.93 52.48C120.378 52.736 120.874 52.864 121.418 52.864C121.962 52.864 122.458 52.736 122.906 52.48C123.365 52.2133 123.728 51.8347 123.994 51.344C124.261 50.8427 124.394 50.2613 124.394 49.6ZM132.391 54.144C131.719 54.144 131.116 54.032 130.583 53.808C130.049 53.5733 129.628 53.2533 129.319 52.848C129.009 52.432 128.839 51.9573 128.807 51.424H130.311C130.353 51.8613 130.556 52.2187 130.919 52.496C131.292 52.7733 131.777 52.912 132.375 52.912C132.929 52.912 133.367 52.7893 133.687 52.544C134.007 52.2987 134.167 51.9893 134.167 51.616C134.167 51.232 133.996 50.9493 133.655 50.768C133.313 50.576 132.785 50.3893 132.071 50.208C131.42 50.0373 130.887 49.8667 130.471 49.696C130.065 49.5147 129.713 49.2533 129.415 48.912C129.127 48.56 128.983 48.1013 128.983 47.536C128.983 47.088 129.116 46.6773 129.383 46.304C129.649 45.9307 130.028 45.6373 130.519 45.424C131.009 45.2 131.569 45.088 132.199 45.088C133.169 45.088 133.953 45.3333 134.551 45.824C135.148 46.3147 135.468 46.9867 135.511 47.84H134.055C134.023 47.3813 133.836 47.0133 133.495 46.736C133.164 46.4587 132.716 46.32 132.151 46.32C131.628 46.32 131.212 46.432 130.903 46.656C130.593 46.88 130.439 47.1733 130.439 47.536C130.439 47.824 130.529 48.064 130.711 48.256C130.903 48.4373 131.137 48.5867 131.415 48.704C131.703 48.8107 132.097 48.9333 132.599 49.072C133.228 49.2427 133.74 49.4133 134.135 49.584C134.529 49.744 134.865 49.9893 135.143 50.32C135.431 50.6507 135.58 51.0827 135.591 51.616C135.591 52.096 135.457 52.528 135.191 52.912C134.924 53.296 134.545 53.6 134.055 53.824C133.575 54.0373 133.02 54.144 132.391 54.144ZM141.71 54.144C141.038 54.144 140.435 54.032 139.902 53.808C139.369 53.5733 138.947 53.2533 138.638 52.848C138.329 52.432 138.158 51.9573 138.126 51.424H139.63C139.673 51.8613 139.875 52.2187 140.238 52.496C140.611 52.7733 141.097 52.912 141.694 52.912C142.249 52.912 142.686 52.7893 143.006 52.544C143.326 52.2987 143.486 51.9893 143.486 51.616C143.486 51.232 143.315 50.9493 142.974 50.768C142.633 50.576 142.105 50.3893 141.39 50.208C140.739 50.0373 140.206 49.8667 139.79 49.696C139.385 49.5147 139.033 49.2533 138.734 48.912C138.446 48.56 138.302 48.1013 138.302 47.536C138.302 47.088 138.435 46.6773 138.702 46.304C138.969 45.9307 139.347 45.6373 139.838 45.424C140.329 45.2 140.889 45.088 141.518 45.088C142.489 45.088 143.273 45.3333 143.87 45.824C144.467 46.3147 144.787 46.9867 144.83 47.84H143.374C143.342 47.3813 143.155 47.0133 142.814 46.736C142.483 46.4587 142.035 46.32 141.47 46.32C140.947 46.32 140.531 46.432 140.222 46.656C139.913 46.88 139.758 47.1733 139.758 47.536C139.758 47.824 139.849 48.064 140.03 48.256C140.222 48.4373 140.457 48.5867 140.734 48.704C141.022 48.8107 141.417 48.9333 141.918 49.072C142.547 49.2427 143.059 49.4133 143.454 49.584C143.849 49.744 144.185 49.9893 144.462 50.32C144.75 50.6507 144.899 51.0827 144.91 51.616C144.91 52.096 144.777 52.528 144.51 52.912C144.243 53.296 143.865 53.6 143.374 53.824C142.894 54.0373 142.339 54.144 141.71 54.144ZM159.375 45.36V45.632H161.439V46.688H159.295C159.199 47.424 158.986 48 158.655 48.416C158.335 48.832 157.866 49.1307 157.247 49.312C156.639 49.4933 155.828 49.584 154.815 49.584V50.848C154.815 52.288 155.444 53.008 156.703 53.008C157.94 53.008 158.559 52.3147 158.559 50.928H159.903C159.892 51.9947 159.61 52.8 159.055 53.344C158.5 53.888 157.711 54.16 156.687 54.16C155.631 54.16 154.826 53.8667 154.271 53.28C153.727 52.6933 153.455 51.872 153.455 50.816V48.56C154.671 48.56 155.567 48.5227 156.143 48.448C156.73 48.3627 157.156 48.192 157.423 47.936C157.69 47.6693 157.86 47.2533 157.935 46.688H152.735V45.632H157.999V45.344V43.904H152.735V42.832H161.439V43.904H159.375V45.36ZM163.675 51.424V50.32L169.291 42.544H171.035V50.16H172.635V51.424H171.035V54H169.595V51.424H163.675ZM169.659 44.064L165.355 50.16H169.659V44.064ZM182.426 43.696H176.81V47.344C177.055 47.0027 177.418 46.7253 177.898 46.512C178.378 46.288 178.895 46.176 179.45 46.176C180.335 46.176 181.055 46.3627 181.61 46.736C182.164 47.0987 182.559 47.5733 182.794 48.16C183.039 48.736 183.162 49.3493 183.162 50C183.162 50.768 183.018 51.456 182.73 52.064C182.442 52.672 181.999 53.152 181.402 53.504C180.815 53.856 180.084 54.032 179.21 54.032C178.09 54.032 177.183 53.744 176.49 53.168C175.796 52.592 175.375 51.824 175.226 50.864H176.65C176.788 51.472 177.082 51.9467 177.53 52.288C177.978 52.6293 178.543 52.8 179.226 52.8C180.068 52.8 180.703 52.5493 181.13 52.048C181.556 51.536 181.77 50.864 181.77 50.032C181.77 49.2 181.556 48.56 181.13 48.112C180.703 47.6533 180.074 47.424 179.242 47.424C178.676 47.424 178.18 47.5627 177.754 47.84C177.338 48.1067 177.034 48.4747 176.842 48.944H175.466V42.416H182.426V43.696ZM186.057 48.096C186.057 46.2613 186.355 44.832 186.953 43.808C187.55 42.7733 188.595 42.256 190.089 42.256C191.571 42.256 192.611 42.7733 193.209 43.808C193.806 44.832 194.105 46.2613 194.105 48.096C194.105 49.9627 193.806 51.4133 193.209 52.448C192.611 53.4827 191.571 54 190.089 54C188.595 54 187.55 53.4827 186.953 52.448C186.355 51.4133 186.057 49.9627 186.057 48.096ZM192.665 48.096C192.665 47.168 192.601 46.384 192.473 45.744C192.355 45.0933 192.105 44.5707 191.721 44.176C191.347 43.7813 190.803 43.584 190.089 43.584C189.363 43.584 188.809 43.7813 188.425 44.176C188.051 44.5707 187.801 45.0933 187.673 45.744C187.555 46.384 187.497 47.168 187.497 48.096C187.497 49.056 187.555 49.8613 187.673 50.512C187.801 51.1627 188.051 51.6853 188.425 52.08C188.809 52.4747 189.363 52.672 190.089 52.672C190.803 52.672 191.347 52.4747 191.721 52.08C192.105 51.6853 192.355 51.1627 192.473 50.512C192.601 49.8613 192.665 49.056 192.665 48.096Z" fill="#FFF2DE"/>
<path d="M48.5 20.5H215.5V19.5H48.5V20.5ZM215.5 75.5H48.5V76.5H215.5V75.5ZM48.5 75.5C33.3122 75.5 21 63.1878 21 48H20C20 63.7401 32.7599 76.5 48.5 76.5V75.5ZM243 48C243 63.1878 230.688 75.5 215.5 75.5V76.5C231.24 76.5 244 63.7401 244 48H243ZM215.5 20.5C230.688 20.5 243 32.8122 243 48H244C244 32.2599 231.24 19.5 215.5 19.5V20.5ZM48.5 19.5C32.7599 19.5 20 32.2599 20 48H21C21 32.8122 33.3122 20.5 48.5 20.5V19.5Z" fill="url(#paint1_linear_2_150)" fill-opacity="0.5"/>
</g>
<defs>
<filter id="filter0_dd_2_150" x="0.5" y="0" width="263" height="96" filterUnits="userSpaceOnUse" color-interpolation-filters="sRGB">
<feFlood flood-opacity="0" result="BackgroundImageFix"/>
<feColorMatrix in="SourceAlpha" type="matrix" values="0 0 0 0 0 0 0 0 0 0 0 0 0 0 0 0 0 0 127 0" result="hardAlpha"/>
<feOffset dx="-5" dy="-5"/>
<feGaussianBlur stdDeviation="7.5"/>
<feColorMatrix type="matrix" values="0 0 0 0 1 0 0 0 0 1 0 0 0 0 1 0 0 0 0.1 0"/>
<feBlend mode="normal" in2="BackgroundImageFix" result="effect1_dropShadow_2_150"/>
<feColorMatrix in="SourceAlpha" type="matrix" values="0 0 0 0 0 0 0 0 0 0 0 0 0 0 0 0 0 0 127 0" result="hardAlpha"/>
<feOffset dx="5" dy="5"/>
<feGaussianBlur stdDeviation="7.5"/>
<feColorMatrix type="matrix" values="0 0 0 0 0 0 0 0 0 0 0 0 0 0 0 0 0 0 0.5 0"/>
<feBlend mode="normal" in2="effect1_dropShadow_2_150" result="effect2_dropShadow_2_150"/>
<feBlend mode="normal" in="SourceGraphic" in2="effect2_dropShadow_2_150" result="shape"/>
</filter>
<linearGradient id="paint0_linear_2_150" x1="20.5" y1="48" x2="58.8055" y2="132.112" gradientUnits="userSpaceOnUse">
<stop stop-color="#1B232C"/>
<stop offset="1" stop-color="#111518"/>
</linearGradient>
<linearGradient id="paint1_linear_2_150" x1="20.5" y1="48" x2="243.5" y2="48" gradientUnits="userSpaceOnUse">
<stop stop-color="#1C242C"/>
<stop offset="1" stop-color="#161C20"/>
</linearGradient>
</defs>
</svg>
