<svg width="100" height="35" viewBox="0 0 100 35" fill="none" xmlns="http://www.w3.org/2000/svg">
<path d="M27.7713 8.62882C26.8454 9.24255 26.5882 10.4851 27.1969 11.4042C27.8056 12.3232 29.0496 12.5708 29.9755 11.957C30.9013 11.3433 31.1585 10.1007 30.5498 9.18166C29.9412 8.2626 28.6972 8.01508 27.7713 8.62882Z" fill="white"/>
<path fill-rule="evenodd" clip-rule="evenodd" d="M4.3514 24.7449C2.34427 21.3799 1.52796 17.4369 2.03398 13.5512C2.54001 9.66549 4.3389 6.06336 7.14081 3.32523C7.7614 2.71876 8.7559 2.73044 9.3621 3.3513C9.96829 3.97216 9.95662 4.96711 9.33603 5.57357C7.03891 7.8184 5.5641 10.7716 5.14924 13.9573C4.73438 17.1429 5.40363 20.3756 7.04916 23.1343C8.69468 25.893 11.2206 28.0172 14.2201 29.1645C17.2195 30.3118 20.5176 30.4155 23.5831 29.4589C26.6486 28.5022 29.3029 26.5409 31.1183 23.8909C32.9337 21.241 33.8045 18.0568 33.5903 14.8513C33.5325 13.9853 34.1873 13.2364 35.0529 13.1785C35.9185 13.1207 36.6671 13.7758 36.7249 14.6417C36.9861 18.5516 35.924 22.4355 33.7096 25.6678C31.4953 28.9 28.2577 31.2923 24.5186 32.4592C20.7795 33.6261 16.7566 33.4997 13.0981 32.1002C9.43956 30.7008 6.35852 28.1098 4.3514 24.7449Z" fill="white"/>
<path fill-rule="evenodd" clip-rule="evenodd" d="M15.335 26.2254C13.0185 25.3703 11.0571 23.7599 9.76697 21.6535C8.47685 19.5472 7.93311 17.0677 8.22337 14.6145C8.32535 13.7526 9.10641 13.1366 9.96792 13.2386C10.8294 13.3406 11.4452 14.122 11.3432 14.9839C11.1359 16.7361 11.5242 18.507 12.4457 20.0114C13.3671 21.5158 14.7679 22.666 16.4225 23.2768C18.0771 23.8875 19.889 23.9232 21.5663 23.3781C23.2436 22.8329 24.6886 21.7387 25.6685 20.2718C26.6484 18.8048 27.1061 17.0505 26.9679 15.2916C26.8999 14.4263 27.5458 13.6698 28.4107 13.6017C29.2755 13.5337 30.0318 14.18 30.0998 15.0452C30.2933 17.5079 29.6525 19.9642 28.2805 22.0181C26.9086 24.072 24.8854 25.604 22.5369 26.3673C20.1885 27.1305 17.6516 27.0806 15.335 26.2254Z" fill="white"/>
<path fill-rule="evenodd" clip-rule="evenodd" d="M30.7376 3.4232C32.05 3.81773 33.1914 4.64281 33.9779 5.76548C34.4758 6.4762 34.3036 7.45618 33.5931 7.95431C32.8827 8.45244 31.9032 8.28009 31.4053 7.56937C31.0238 7.0248 30.4701 6.62459 29.8335 6.43321C29.197 6.24184 28.5145 6.27045 27.8962 6.51444C27.2778 6.75842 26.7596 7.20357 26.4249 7.77816C25.9882 8.52807 25.0265 8.78179 24.2769 8.34487C23.5274 7.90795 23.2737 6.94583 23.7105 6.19592C24.4003 5.01136 25.4687 4.09364 26.7435 3.59064C28.0183 3.08765 29.4252 3.02866 30.7376 3.4232Z" fill="white"/>
<path d="M60.5978 15.0501H56.1953C55.9264 13.8584 55.5344 13.022 55.019 12.5408C54.5261 12.0596 53.8204 11.819 52.9018 11.819C51.5127 11.819 50.5493 12.3231 50.0116 13.3314C49.4291 14.5001 49.1378 15.9323 49.1378 17.628C49.1378 19.3467 49.4627 20.7102 50.1124 21.7185C50.7845 22.7038 51.7031 23.1965 52.8682 23.1965C53.7868 23.1965 54.4925 22.9559 54.9854 22.4747C55.5008 21.9705 55.904 21.1456 56.1953 19.9998H60.5978C60.3738 22.2914 59.4776 24.0673 57.9093 25.3277C56.5426 26.4505 54.851 27.0119 52.8346 27.0119C50.0116 27.0119 47.8719 26.0839 46.4156 24.2277C45.1385 22.6236 44.5 20.4581 44.5 17.7312C44.5 14.4313 45.3402 11.9335 47.0205 10.2378C48.4769 8.74829 50.4485 8.00354 52.9354 8.00354C55.3103 8.00354 57.1923 8.70246 58.5814 10.1003C59.7689 11.3377 60.441 12.9877 60.5978 15.0501Z" fill="white"/>
<path d="M79.5841 26.5995H74.9799V24.0215C73.7252 25.9922 71.944 26.9776 69.6363 26.9776C67.5975 26.9776 66.0516 26.3589 64.9985 25.1214C64.1024 24.0444 63.6543 22.5663 63.6543 20.6873V8.38165H68.2921V19.6904C68.2921 21.8674 69.2779 22.9559 71.2495 22.9559C72.3697 22.9559 73.2659 22.6351 73.9381 21.9935C74.6326 21.3518 74.9799 20.481 74.9799 19.3811V8.38165H79.5841V26.5995Z" fill="white"/>
<path d="M99.4664 18.728H87.5022C87.5694 20.1946 87.7935 21.2372 88.1744 21.856C88.8241 22.8642 89.8435 23.3684 91.2326 23.3684C92.9578 23.3684 94.1116 22.6351 94.6942 21.1685H99.2647C98.7494 22.9559 97.7412 24.3767 96.2401 25.4308C94.7614 26.462 93.025 26.9776 91.031 26.9776C88.32 26.9776 86.2364 26.0495 84.7801 24.1933C83.503 22.5663 82.8644 20.4237 82.8644 17.7655C82.8644 14.5345 83.6934 12.0367 85.3514 10.2722C86.8077 8.75975 88.7233 8.00354 91.0982 8.00354C92.913 8.00354 94.5037 8.46185 95.8704 9.37847C97.2371 10.2951 98.2117 11.5784 98.7943 13.2283C99.2648 14.5115 99.5 16.0583 99.5 17.8687C99.5 18.0978 99.4888 18.3843 99.4664 18.728ZM94.6606 15.6C94.4365 12.9418 93.2379 11.6127 91.0646 11.6127C89.0258 11.6127 87.8607 12.9418 87.5695 15.6H94.6606Z" fill="white"/>
</svg>
