<svg width="23" height="23" viewBox="0 0 23 23" fill="none" xmlns="http://www.w3.org/2000/svg">
<g clip-path="url(#clip0_2_287)">
<path d="M20.0382 0H2.8626C1.28387 0 0 1.28387 0 2.8626V20.0382C0 21.6169 1.28387 22.9008 2.8626 22.9008H11.4504V15.0286H8.58779V11.4504H11.4504V8.58779C11.4504 6.21613 13.3726 4.29389 15.7443 4.29389H18.6069V7.87214H17.1756C16.3855 7.87214 15.7443 7.79771 15.7443 8.58779V11.4504H19.3225L17.8912 15.0286H15.7443V22.9008H20.0382C21.6169 22.9008 22.9008 21.6169 22.9008 20.0382V2.8626C22.9008 1.28387 21.6169 0 20.0382 0Z" fill="#B9B9B9"/>
</g>
<defs>
<clipPath id="clip0_2_287">
<rect width="22.9008" height="22.9008" fill="white"/>
</clipPath>
</defs>
</svg>
