<svg width="24" height="23" viewBox="0 0 24 23" fill="none" xmlns="http://www.w3.org/2000/svg">
<path d="M22.5414 1.25972C21.7019 0.41996 20.6904 0 19.5077 0H5.19462C4.01192 0 3.00041 0.41996 2.16049 1.25972C1.32072 2.09964 0.900764 3.11111 0.900764 4.29386V18.6067C0.900764 19.7894 1.32072 20.801 2.16049 21.6409C3.00041 22.4808 4.01192 22.9008 5.19462 22.9008H19.5075C20.6902 22.9008 21.7017 22.4808 22.5413 21.6409C23.3812 20.801 23.8012 19.7894 23.8012 18.6067V4.29386C23.8011 3.11111 23.3812 2.09949 22.5414 1.25972ZM18.4192 8.81148C18.4292 8.90094 18.4342 9.03488 18.4342 9.2141C18.4342 10.0491 18.3123 10.8865 18.0689 11.7261C17.8255 12.5662 17.4527 13.3713 16.9506 14.1416C16.4489 14.9118 15.8501 15.5928 15.1544 16.1842C14.4585 16.7753 13.6237 17.2477 12.6495 17.6002C11.6756 17.9534 10.6318 18.1299 9.51866 18.1299C7.78932 18.1299 6.18906 17.6624 4.71795 16.7285C4.9565 16.7582 5.20512 16.7732 5.4634 16.7732C6.9047 16.7732 8.20181 16.3259 9.35485 15.4311C8.67906 15.4214 8.07512 15.2129 7.54341 14.8049C7.01154 14.3974 6.6414 13.8807 6.43262 13.2544C6.69096 13.2941 6.88475 13.3138 7.01394 13.3138C7.23259 13.3138 7.48612 13.2741 7.77428 13.1948C7.04872 13.0554 6.43753 12.6955 5.94054 12.114C5.44345 11.5324 5.19499 10.869 5.19499 10.1236V10.0938C5.72163 10.3421 6.21862 10.4713 6.68584 10.4814C5.78132 9.87496 5.32909 9.00538 5.32909 7.87229C5.32909 7.31562 5.47312 6.78886 5.76137 6.29188C6.54651 7.25608 7.5009 8.02629 8.62391 8.60275C9.74702 9.17917 10.9498 9.50236 12.232 9.57187C12.1823 9.38304 12.1574 9.14439 12.1574 8.85623C12.1574 7.99135 12.4631 7.25347 13.0744 6.64212C13.6856 6.03083 14.4237 5.72507 15.2883 5.72507C16.2029 5.72507 16.9635 6.05318 17.5697 6.70923C18.2556 6.58003 18.9218 6.32645 19.5677 5.94889C19.3193 6.71403 18.8568 7.29556 18.1812 7.69317C18.8271 7.60356 19.4282 7.43468 19.9848 7.18621C19.5674 7.82231 19.0454 8.364 18.4192 8.81148Z" fill="#B9B9B9"/>
</svg>
